<!DOCTYPE svg PUBLIC "-//W3C//DTD SVG 1.1//EN" "http://www.w3.org/Graphics/SVG/1.1/DTD/svg11.dtd">
<!-- Uploaded to: SVG Repo, www.svgrepo.com, Transformed by: SVG Repo Mixer Tools -->
<svg width="800px" height="800px" viewBox="0 0 16 16" version="1.1" xmlns="http://www.w3.org/2000/svg" xmlns:xlink="http://www.w3.org/1999/xlink" fill="#73ea48" stroke="#73ea48">
<g id="SVGRepo_bgCarrier" stroke-width="0"/>
<g id="SVGRepo_tracerCarrier" stroke-linecap="round" stroke-linejoin="round"/>
<g id="SVGRepo_iconCarrier"> <title>Fill 1</title> <desc>Created with Sketch.</desc> <g id="-" stroke="none" stroke-width="1" fill="none" fill-rule="evenodd"> <g id="Icon/playBig" fill="#3df553"> <path d="M6,11 L11,8 L6,5 L6,11 Z M8,14.6 C4.4,14.6 1.4,11.6 1.4,8 C1.4,4.4 4.4,1.4 8,1.4 C11.6,1.4 14.6,4.4 14.6,8 C14.6,11.6 11.6,14.6 8,14.6 L8,14.6 Z M8,0 C3.6,0 0,3.6 0,8 C0,12.4 3.6,16 8,16 C12.4,16 16,12.4 16,8 C16,3.6 12.4,0 8,0 L8,0 Z" id="Fill-1"> </path> </g> </g> </g>
</svg>